G04 #@! TF.GenerationSoftware,KiCad,Pcbnew,8.0.7*
G04 #@! TF.CreationDate,2025-03-03T17:10:54+00:00*
G04 #@! TF.ProjectId,view_screen,76696577-5f73-4637-9265-656e2e6b6963,rev?*
G04 #@! TF.SameCoordinates,Original*
G04 #@! TF.FileFunction,Legend,Top*
G04 #@! TF.FilePolarity,Positive*
%FSLAX46Y46*%
G04 Gerber Fmt 4.6, Leading zero omitted, Abs format (unit mm)*
G04 Created by KiCad (PCBNEW 8.0.7) date 2025-03-03 17:10:54*
%MOMM*%
%LPD*%
G01*
G04 APERTURE LIST*
%ADD10C,0.300000*%
%ADD11C,0.150000*%
%ADD12C,0.200000*%
%ADD13C,2.400000*%
%ADD14O,2.500000X1.250000*%
G04 APERTURE END LIST*
D10*
X92000000Y-93500000D02*
X92000000Y-115000000D01*
X108000000Y-93000000D02*
X108000000Y-115000000D01*
D11*
X86545180Y-95714286D02*
X86545180Y-95809524D01*
X86545180Y-95809524D02*
X86497561Y-95904762D01*
X86497561Y-95904762D02*
X86449942Y-95952381D01*
X86449942Y-95952381D02*
X86354704Y-96000000D01*
X86354704Y-96000000D02*
X86164228Y-96047619D01*
X86164228Y-96047619D02*
X85926133Y-96047619D01*
X85926133Y-96047619D02*
X85735657Y-96000000D01*
X85735657Y-96000000D02*
X85640419Y-95952381D01*
X85640419Y-95952381D02*
X85592800Y-95904762D01*
X85592800Y-95904762D02*
X85545180Y-95809524D01*
X85545180Y-95809524D02*
X85545180Y-95714286D01*
X85545180Y-95714286D02*
X85592800Y-95619048D01*
X85592800Y-95619048D02*
X85640419Y-95571429D01*
X85640419Y-95571429D02*
X85735657Y-95523810D01*
X85735657Y-95523810D02*
X85926133Y-95476191D01*
X85926133Y-95476191D02*
X86164228Y-95476191D01*
X86164228Y-95476191D02*
X86354704Y-95523810D01*
X86354704Y-95523810D02*
X86449942Y-95571429D01*
X86449942Y-95571429D02*
X86497561Y-95619048D01*
X86497561Y-95619048D02*
X86545180Y-95714286D01*
X85640419Y-96476191D02*
X85592800Y-96523810D01*
X85592800Y-96523810D02*
X85545180Y-96476191D01*
X85545180Y-96476191D02*
X85592800Y-96428572D01*
X85592800Y-96428572D02*
X85640419Y-96476191D01*
X85640419Y-96476191D02*
X85545180Y-96476191D01*
X86545180Y-97380952D02*
X86545180Y-97190476D01*
X86545180Y-97190476D02*
X86497561Y-97095238D01*
X86497561Y-97095238D02*
X86449942Y-97047619D01*
X86449942Y-97047619D02*
X86307085Y-96952381D01*
X86307085Y-96952381D02*
X86116609Y-96904762D01*
X86116609Y-96904762D02*
X85735657Y-96904762D01*
X85735657Y-96904762D02*
X85640419Y-96952381D01*
X85640419Y-96952381D02*
X85592800Y-97000000D01*
X85592800Y-97000000D02*
X85545180Y-97095238D01*
X85545180Y-97095238D02*
X85545180Y-97285714D01*
X85545180Y-97285714D02*
X85592800Y-97380952D01*
X85592800Y-97380952D02*
X85640419Y-97428571D01*
X85640419Y-97428571D02*
X85735657Y-97476190D01*
X85735657Y-97476190D02*
X85973752Y-97476190D01*
X85973752Y-97476190D02*
X86068990Y-97428571D01*
X86068990Y-97428571D02*
X86116609Y-97380952D01*
X86116609Y-97380952D02*
X86164228Y-97285714D01*
X86164228Y-97285714D02*
X86164228Y-97095238D01*
X86164228Y-97095238D02*
X86116609Y-97000000D01*
X86116609Y-97000000D02*
X86068990Y-96952381D01*
X86068990Y-96952381D02*
X85973752Y-96904762D01*
X85545180Y-97904762D02*
X86211847Y-97904762D01*
X86116609Y-97904762D02*
X86164228Y-97952381D01*
X86164228Y-97952381D02*
X86211847Y-98047619D01*
X86211847Y-98047619D02*
X86211847Y-98190476D01*
X86211847Y-98190476D02*
X86164228Y-98285714D01*
X86164228Y-98285714D02*
X86068990Y-98333333D01*
X86068990Y-98333333D02*
X85545180Y-98333333D01*
X86068990Y-98333333D02*
X86164228Y-98380952D01*
X86164228Y-98380952D02*
X86211847Y-98476190D01*
X86211847Y-98476190D02*
X86211847Y-98619047D01*
X86211847Y-98619047D02*
X86164228Y-98714286D01*
X86164228Y-98714286D02*
X86068990Y-98761905D01*
X86068990Y-98761905D02*
X85545180Y-98761905D01*
X85545180Y-99238095D02*
X86211847Y-99238095D01*
X86116609Y-99238095D02*
X86164228Y-99285714D01*
X86164228Y-99285714D02*
X86211847Y-99380952D01*
X86211847Y-99380952D02*
X86211847Y-99523809D01*
X86211847Y-99523809D02*
X86164228Y-99619047D01*
X86164228Y-99619047D02*
X86068990Y-99666666D01*
X86068990Y-99666666D02*
X85545180Y-99666666D01*
X86068990Y-99666666D02*
X86164228Y-99714285D01*
X86164228Y-99714285D02*
X86211847Y-99809523D01*
X86211847Y-99809523D02*
X86211847Y-99952380D01*
X86211847Y-99952380D02*
X86164228Y-100047619D01*
X86164228Y-100047619D02*
X86068990Y-100095238D01*
X86068990Y-100095238D02*
X85545180Y-100095238D01*
X86211847Y-101190476D02*
X86211847Y-101571428D01*
X86545180Y-101333333D02*
X85688038Y-101333333D01*
X85688038Y-101333333D02*
X85592800Y-101380952D01*
X85592800Y-101380952D02*
X85545180Y-101476190D01*
X85545180Y-101476190D02*
X85545180Y-101571428D01*
X85545180Y-101904762D02*
X86545180Y-101904762D01*
X85545180Y-102333333D02*
X86068990Y-102333333D01*
X86068990Y-102333333D02*
X86164228Y-102285714D01*
X86164228Y-102285714D02*
X86211847Y-102190476D01*
X86211847Y-102190476D02*
X86211847Y-102047619D01*
X86211847Y-102047619D02*
X86164228Y-101952381D01*
X86164228Y-101952381D02*
X86116609Y-101904762D01*
X85545180Y-102809524D02*
X86211847Y-102809524D01*
X86545180Y-102809524D02*
X86497561Y-102761905D01*
X86497561Y-102761905D02*
X86449942Y-102809524D01*
X86449942Y-102809524D02*
X86497561Y-102857143D01*
X86497561Y-102857143D02*
X86545180Y-102809524D01*
X86545180Y-102809524D02*
X86449942Y-102809524D01*
X85592800Y-103714285D02*
X85545180Y-103619047D01*
X85545180Y-103619047D02*
X85545180Y-103428571D01*
X85545180Y-103428571D02*
X85592800Y-103333333D01*
X85592800Y-103333333D02*
X85640419Y-103285714D01*
X85640419Y-103285714D02*
X85735657Y-103238095D01*
X85735657Y-103238095D02*
X86021371Y-103238095D01*
X86021371Y-103238095D02*
X86116609Y-103285714D01*
X86116609Y-103285714D02*
X86164228Y-103333333D01*
X86164228Y-103333333D02*
X86211847Y-103428571D01*
X86211847Y-103428571D02*
X86211847Y-103619047D01*
X86211847Y-103619047D02*
X86164228Y-103714285D01*
X85545180Y-104142857D02*
X86545180Y-104142857D01*
X85926133Y-104238095D02*
X85545180Y-104523809D01*
X86211847Y-104523809D02*
X85830895Y-104142857D01*
D12*
X89585161Y-92714285D02*
X87585161Y-93380951D01*
X87585161Y-93380951D02*
X89585161Y-94047618D01*
X87585161Y-94714285D02*
X89585161Y-94714285D01*
X88632780Y-94714285D02*
X88632780Y-95857142D01*
X87585161Y-95857142D02*
X89585161Y-95857142D01*
X88632780Y-97476190D02*
X88537542Y-97761904D01*
X88537542Y-97761904D02*
X88442304Y-97857142D01*
X88442304Y-97857142D02*
X88251828Y-97952380D01*
X88251828Y-97952380D02*
X87966114Y-97952380D01*
X87966114Y-97952380D02*
X87775638Y-97857142D01*
X87775638Y-97857142D02*
X87680400Y-97761904D01*
X87680400Y-97761904D02*
X87585161Y-97571428D01*
X87585161Y-97571428D02*
X87585161Y-96809523D01*
X87585161Y-96809523D02*
X89585161Y-96809523D01*
X89585161Y-96809523D02*
X89585161Y-97476190D01*
X89585161Y-97476190D02*
X89489923Y-97666666D01*
X89489923Y-97666666D02*
X89394685Y-97761904D01*
X89394685Y-97761904D02*
X89204209Y-97857142D01*
X89204209Y-97857142D02*
X89013733Y-97857142D01*
X89013733Y-97857142D02*
X88823257Y-97761904D01*
X88823257Y-97761904D02*
X88728019Y-97666666D01*
X88728019Y-97666666D02*
X88632780Y-97476190D01*
X88632780Y-97476190D02*
X88632780Y-96809523D01*
X89585161Y-101285714D02*
X89585161Y-100333333D01*
X89585161Y-100333333D02*
X88632780Y-100238095D01*
X88632780Y-100238095D02*
X88728019Y-100333333D01*
X88728019Y-100333333D02*
X88823257Y-100523809D01*
X88823257Y-100523809D02*
X88823257Y-101000000D01*
X88823257Y-101000000D02*
X88728019Y-101190476D01*
X88728019Y-101190476D02*
X88632780Y-101285714D01*
X88632780Y-101285714D02*
X88442304Y-101380952D01*
X88442304Y-101380952D02*
X87966114Y-101380952D01*
X87966114Y-101380952D02*
X87775638Y-101285714D01*
X87775638Y-101285714D02*
X87680400Y-101190476D01*
X87680400Y-101190476D02*
X87585161Y-101000000D01*
X87585161Y-101000000D02*
X87585161Y-100523809D01*
X87585161Y-100523809D02*
X87680400Y-100333333D01*
X87680400Y-100333333D02*
X87775638Y-100238095D01*
X87585161Y-102333333D02*
X87585161Y-102714285D01*
X87585161Y-102714285D02*
X87680400Y-102904762D01*
X87680400Y-102904762D02*
X87775638Y-103000000D01*
X87775638Y-103000000D02*
X88061352Y-103190476D01*
X88061352Y-103190476D02*
X88442304Y-103285714D01*
X88442304Y-103285714D02*
X89204209Y-103285714D01*
X89204209Y-103285714D02*
X89394685Y-103190476D01*
X89394685Y-103190476D02*
X89489923Y-103095238D01*
X89489923Y-103095238D02*
X89585161Y-102904762D01*
X89585161Y-102904762D02*
X89585161Y-102523809D01*
X89585161Y-102523809D02*
X89489923Y-102333333D01*
X89489923Y-102333333D02*
X89394685Y-102238095D01*
X89394685Y-102238095D02*
X89204209Y-102142857D01*
X89204209Y-102142857D02*
X88728019Y-102142857D01*
X88728019Y-102142857D02*
X88537542Y-102238095D01*
X88537542Y-102238095D02*
X88442304Y-102333333D01*
X88442304Y-102333333D02*
X88347066Y-102523809D01*
X88347066Y-102523809D02*
X88347066Y-102904762D01*
X88347066Y-102904762D02*
X88442304Y-103095238D01*
X88442304Y-103095238D02*
X88537542Y-103190476D01*
X88537542Y-103190476D02*
X88728019Y-103285714D01*
X89394685Y-104047619D02*
X89489923Y-104142857D01*
X89489923Y-104142857D02*
X89585161Y-104333333D01*
X89585161Y-104333333D02*
X89585161Y-104809524D01*
X89585161Y-104809524D02*
X89489923Y-105000000D01*
X89489923Y-105000000D02*
X89394685Y-105095238D01*
X89394685Y-105095238D02*
X89204209Y-105190476D01*
X89204209Y-105190476D02*
X89013733Y-105190476D01*
X89013733Y-105190476D02*
X88728019Y-105095238D01*
X88728019Y-105095238D02*
X87585161Y-103952381D01*
X87585161Y-103952381D02*
X87585161Y-105190476D01*
X89585161Y-107000000D02*
X89585161Y-106047619D01*
X89585161Y-106047619D02*
X88632780Y-105952381D01*
X88632780Y-105952381D02*
X88728019Y-106047619D01*
X88728019Y-106047619D02*
X88823257Y-106238095D01*
X88823257Y-106238095D02*
X88823257Y-106714286D01*
X88823257Y-106714286D02*
X88728019Y-106904762D01*
X88728019Y-106904762D02*
X88632780Y-107000000D01*
X88632780Y-107000000D02*
X88442304Y-107095238D01*
X88442304Y-107095238D02*
X87966114Y-107095238D01*
X87966114Y-107095238D02*
X87775638Y-107000000D01*
X87775638Y-107000000D02*
X87680400Y-106904762D01*
X87680400Y-106904762D02*
X87585161Y-106714286D01*
X87585161Y-106714286D02*
X87585161Y-106238095D01*
X87585161Y-106238095D02*
X87680400Y-106047619D01*
X87680400Y-106047619D02*
X87775638Y-105952381D01*
D11*
X94638095Y-88454819D02*
X94638095Y-87454819D01*
X94638095Y-87454819D02*
X94876190Y-87454819D01*
X94876190Y-87454819D02*
X95019047Y-87502438D01*
X95019047Y-87502438D02*
X95114285Y-87597676D01*
X95114285Y-87597676D02*
X95161904Y-87692914D01*
X95161904Y-87692914D02*
X95209523Y-87883390D01*
X95209523Y-87883390D02*
X95209523Y-88026247D01*
X95209523Y-88026247D02*
X95161904Y-88216723D01*
X95161904Y-88216723D02*
X95114285Y-88311961D01*
X95114285Y-88311961D02*
X95019047Y-88407200D01*
X95019047Y-88407200D02*
X94876190Y-88454819D01*
X94876190Y-88454819D02*
X94638095Y-88454819D01*
X95209523Y-90359580D02*
X95161904Y-90407200D01*
X95161904Y-90407200D02*
X95019047Y-90454819D01*
X95019047Y-90454819D02*
X94923809Y-90454819D01*
X94923809Y-90454819D02*
X94780952Y-90407200D01*
X94780952Y-90407200D02*
X94685714Y-90311961D01*
X94685714Y-90311961D02*
X94638095Y-90216723D01*
X94638095Y-90216723D02*
X94590476Y-90026247D01*
X94590476Y-90026247D02*
X94590476Y-89883390D01*
X94590476Y-89883390D02*
X94638095Y-89692914D01*
X94638095Y-89692914D02*
X94685714Y-89597676D01*
X94685714Y-89597676D02*
X94780952Y-89502438D01*
X94780952Y-89502438D02*
X94923809Y-89454819D01*
X94923809Y-89454819D02*
X95019047Y-89454819D01*
X95019047Y-89454819D02*
X95161904Y-89502438D01*
X95161904Y-89502438D02*
X95209523Y-89550057D01*
X94614286Y-92407200D02*
X94757143Y-92454819D01*
X94757143Y-92454819D02*
X94995238Y-92454819D01*
X94995238Y-92454819D02*
X95090476Y-92407200D01*
X95090476Y-92407200D02*
X95138095Y-92359580D01*
X95138095Y-92359580D02*
X95185714Y-92264342D01*
X95185714Y-92264342D02*
X95185714Y-92169104D01*
X95185714Y-92169104D02*
X95138095Y-92073866D01*
X95138095Y-92073866D02*
X95090476Y-92026247D01*
X95090476Y-92026247D02*
X94995238Y-91978628D01*
X94995238Y-91978628D02*
X94804762Y-91931009D01*
X94804762Y-91931009D02*
X94709524Y-91883390D01*
X94709524Y-91883390D02*
X94661905Y-91835771D01*
X94661905Y-91835771D02*
X94614286Y-91740533D01*
X94614286Y-91740533D02*
X94614286Y-91645295D01*
X94614286Y-91645295D02*
X94661905Y-91550057D01*
X94661905Y-91550057D02*
X94709524Y-91502438D01*
X94709524Y-91502438D02*
X94804762Y-91454819D01*
X94804762Y-91454819D02*
X95042857Y-91454819D01*
X95042857Y-91454819D02*
X95185714Y-91502438D01*
X95209523Y-86454819D02*
X94876190Y-85978628D01*
X94638095Y-86454819D02*
X94638095Y-85454819D01*
X94638095Y-85454819D02*
X95019047Y-85454819D01*
X95019047Y-85454819D02*
X95114285Y-85502438D01*
X95114285Y-85502438D02*
X95161904Y-85550057D01*
X95161904Y-85550057D02*
X95209523Y-85645295D01*
X95209523Y-85645295D02*
X95209523Y-85788152D01*
X95209523Y-85788152D02*
X95161904Y-85883390D01*
X95161904Y-85883390D02*
X95114285Y-85931009D01*
X95114285Y-85931009D02*
X95019047Y-85978628D01*
X95019047Y-85978628D02*
X94638095Y-85978628D01*
X104519048Y-92073866D02*
X105280953Y-92073866D01*
X104519048Y-90073866D02*
X105280953Y-90073866D01*
X104900000Y-90454819D02*
X104900000Y-89692914D01*
X104566667Y-86454819D02*
X104566667Y-85454819D01*
X104566667Y-85454819D02*
X104900000Y-86169104D01*
X104900000Y-86169104D02*
X105233333Y-85454819D01*
X105233333Y-85454819D02*
X105233333Y-86454819D01*
X104971428Y-87931009D02*
X105114285Y-87978628D01*
X105114285Y-87978628D02*
X105161904Y-88026247D01*
X105161904Y-88026247D02*
X105209523Y-88121485D01*
X105209523Y-88121485D02*
X105209523Y-88264342D01*
X105209523Y-88264342D02*
X105161904Y-88359580D01*
X105161904Y-88359580D02*
X105114285Y-88407200D01*
X105114285Y-88407200D02*
X105019047Y-88454819D01*
X105019047Y-88454819D02*
X104638095Y-88454819D01*
X104638095Y-88454819D02*
X104638095Y-87454819D01*
X104638095Y-87454819D02*
X104971428Y-87454819D01*
X104971428Y-87454819D02*
X105066666Y-87502438D01*
X105066666Y-87502438D02*
X105114285Y-87550057D01*
X105114285Y-87550057D02*
X105161904Y-87645295D01*
X105161904Y-87645295D02*
X105161904Y-87740533D01*
X105161904Y-87740533D02*
X105114285Y-87835771D01*
X105114285Y-87835771D02*
X105066666Y-87883390D01*
X105066666Y-87883390D02*
X104971428Y-87931009D01*
X104971428Y-87931009D02*
X104638095Y-87931009D01*
X110045180Y-95714286D02*
X110045180Y-95809524D01*
X110045180Y-95809524D02*
X109997561Y-95904762D01*
X109997561Y-95904762D02*
X109949942Y-95952381D01*
X109949942Y-95952381D02*
X109854704Y-96000000D01*
X109854704Y-96000000D02*
X109664228Y-96047619D01*
X109664228Y-96047619D02*
X109426133Y-96047619D01*
X109426133Y-96047619D02*
X109235657Y-96000000D01*
X109235657Y-96000000D02*
X109140419Y-95952381D01*
X109140419Y-95952381D02*
X109092800Y-95904762D01*
X109092800Y-95904762D02*
X109045180Y-95809524D01*
X109045180Y-95809524D02*
X109045180Y-95714286D01*
X109045180Y-95714286D02*
X109092800Y-95619048D01*
X109092800Y-95619048D02*
X109140419Y-95571429D01*
X109140419Y-95571429D02*
X109235657Y-95523810D01*
X109235657Y-95523810D02*
X109426133Y-95476191D01*
X109426133Y-95476191D02*
X109664228Y-95476191D01*
X109664228Y-95476191D02*
X109854704Y-95523810D01*
X109854704Y-95523810D02*
X109949942Y-95571429D01*
X109949942Y-95571429D02*
X109997561Y-95619048D01*
X109997561Y-95619048D02*
X110045180Y-95714286D01*
X109140419Y-96476191D02*
X109092800Y-96523810D01*
X109092800Y-96523810D02*
X109045180Y-96476191D01*
X109045180Y-96476191D02*
X109092800Y-96428572D01*
X109092800Y-96428572D02*
X109140419Y-96476191D01*
X109140419Y-96476191D02*
X109045180Y-96476191D01*
X110045180Y-97380952D02*
X110045180Y-97190476D01*
X110045180Y-97190476D02*
X109997561Y-97095238D01*
X109997561Y-97095238D02*
X109949942Y-97047619D01*
X109949942Y-97047619D02*
X109807085Y-96952381D01*
X109807085Y-96952381D02*
X109616609Y-96904762D01*
X109616609Y-96904762D02*
X109235657Y-96904762D01*
X109235657Y-96904762D02*
X109140419Y-96952381D01*
X109140419Y-96952381D02*
X109092800Y-97000000D01*
X109092800Y-97000000D02*
X109045180Y-97095238D01*
X109045180Y-97095238D02*
X109045180Y-97285714D01*
X109045180Y-97285714D02*
X109092800Y-97380952D01*
X109092800Y-97380952D02*
X109140419Y-97428571D01*
X109140419Y-97428571D02*
X109235657Y-97476190D01*
X109235657Y-97476190D02*
X109473752Y-97476190D01*
X109473752Y-97476190D02*
X109568990Y-97428571D01*
X109568990Y-97428571D02*
X109616609Y-97380952D01*
X109616609Y-97380952D02*
X109664228Y-97285714D01*
X109664228Y-97285714D02*
X109664228Y-97095238D01*
X109664228Y-97095238D02*
X109616609Y-97000000D01*
X109616609Y-97000000D02*
X109568990Y-96952381D01*
X109568990Y-96952381D02*
X109473752Y-96904762D01*
X109045180Y-97904762D02*
X109711847Y-97904762D01*
X109616609Y-97904762D02*
X109664228Y-97952381D01*
X109664228Y-97952381D02*
X109711847Y-98047619D01*
X109711847Y-98047619D02*
X109711847Y-98190476D01*
X109711847Y-98190476D02*
X109664228Y-98285714D01*
X109664228Y-98285714D02*
X109568990Y-98333333D01*
X109568990Y-98333333D02*
X109045180Y-98333333D01*
X109568990Y-98333333D02*
X109664228Y-98380952D01*
X109664228Y-98380952D02*
X109711847Y-98476190D01*
X109711847Y-98476190D02*
X109711847Y-98619047D01*
X109711847Y-98619047D02*
X109664228Y-98714286D01*
X109664228Y-98714286D02*
X109568990Y-98761905D01*
X109568990Y-98761905D02*
X109045180Y-98761905D01*
X109045180Y-99238095D02*
X109711847Y-99238095D01*
X109616609Y-99238095D02*
X109664228Y-99285714D01*
X109664228Y-99285714D02*
X109711847Y-99380952D01*
X109711847Y-99380952D02*
X109711847Y-99523809D01*
X109711847Y-99523809D02*
X109664228Y-99619047D01*
X109664228Y-99619047D02*
X109568990Y-99666666D01*
X109568990Y-99666666D02*
X109045180Y-99666666D01*
X109568990Y-99666666D02*
X109664228Y-99714285D01*
X109664228Y-99714285D02*
X109711847Y-99809523D01*
X109711847Y-99809523D02*
X109711847Y-99952380D01*
X109711847Y-99952380D02*
X109664228Y-100047619D01*
X109664228Y-100047619D02*
X109568990Y-100095238D01*
X109568990Y-100095238D02*
X109045180Y-100095238D01*
X109711847Y-101190476D02*
X109711847Y-101571428D01*
X110045180Y-101333333D02*
X109188038Y-101333333D01*
X109188038Y-101333333D02*
X109092800Y-101380952D01*
X109092800Y-101380952D02*
X109045180Y-101476190D01*
X109045180Y-101476190D02*
X109045180Y-101571428D01*
X109045180Y-101904762D02*
X110045180Y-101904762D01*
X109045180Y-102333333D02*
X109568990Y-102333333D01*
X109568990Y-102333333D02*
X109664228Y-102285714D01*
X109664228Y-102285714D02*
X109711847Y-102190476D01*
X109711847Y-102190476D02*
X109711847Y-102047619D01*
X109711847Y-102047619D02*
X109664228Y-101952381D01*
X109664228Y-101952381D02*
X109616609Y-101904762D01*
X109045180Y-102809524D02*
X109711847Y-102809524D01*
X110045180Y-102809524D02*
X109997561Y-102761905D01*
X109997561Y-102761905D02*
X109949942Y-102809524D01*
X109949942Y-102809524D02*
X109997561Y-102857143D01*
X109997561Y-102857143D02*
X110045180Y-102809524D01*
X110045180Y-102809524D02*
X109949942Y-102809524D01*
X109092800Y-103714285D02*
X109045180Y-103619047D01*
X109045180Y-103619047D02*
X109045180Y-103428571D01*
X109045180Y-103428571D02*
X109092800Y-103333333D01*
X109092800Y-103333333D02*
X109140419Y-103285714D01*
X109140419Y-103285714D02*
X109235657Y-103238095D01*
X109235657Y-103238095D02*
X109521371Y-103238095D01*
X109521371Y-103238095D02*
X109616609Y-103285714D01*
X109616609Y-103285714D02*
X109664228Y-103333333D01*
X109664228Y-103333333D02*
X109711847Y-103428571D01*
X109711847Y-103428571D02*
X109711847Y-103619047D01*
X109711847Y-103619047D02*
X109664228Y-103714285D01*
X109045180Y-104142857D02*
X110045180Y-104142857D01*
X109426133Y-104238095D02*
X109045180Y-104523809D01*
X109711847Y-104523809D02*
X109330895Y-104142857D01*
D12*
X113085161Y-92714285D02*
X111085161Y-93380951D01*
X111085161Y-93380951D02*
X113085161Y-94047618D01*
X111085161Y-94714285D02*
X113085161Y-94714285D01*
X112132780Y-94714285D02*
X112132780Y-95857142D01*
X111085161Y-95857142D02*
X113085161Y-95857142D01*
X112132780Y-97476190D02*
X112037542Y-97761904D01*
X112037542Y-97761904D02*
X111942304Y-97857142D01*
X111942304Y-97857142D02*
X111751828Y-97952380D01*
X111751828Y-97952380D02*
X111466114Y-97952380D01*
X111466114Y-97952380D02*
X111275638Y-97857142D01*
X111275638Y-97857142D02*
X111180400Y-97761904D01*
X111180400Y-97761904D02*
X111085161Y-97571428D01*
X111085161Y-97571428D02*
X111085161Y-96809523D01*
X111085161Y-96809523D02*
X113085161Y-96809523D01*
X113085161Y-96809523D02*
X113085161Y-97476190D01*
X113085161Y-97476190D02*
X112989923Y-97666666D01*
X112989923Y-97666666D02*
X112894685Y-97761904D01*
X112894685Y-97761904D02*
X112704209Y-97857142D01*
X112704209Y-97857142D02*
X112513733Y-97857142D01*
X112513733Y-97857142D02*
X112323257Y-97761904D01*
X112323257Y-97761904D02*
X112228019Y-97666666D01*
X112228019Y-97666666D02*
X112132780Y-97476190D01*
X112132780Y-97476190D02*
X112132780Y-96809523D01*
X113085161Y-101285714D02*
X113085161Y-100333333D01*
X113085161Y-100333333D02*
X112132780Y-100238095D01*
X112132780Y-100238095D02*
X112228019Y-100333333D01*
X112228019Y-100333333D02*
X112323257Y-100523809D01*
X112323257Y-100523809D02*
X112323257Y-101000000D01*
X112323257Y-101000000D02*
X112228019Y-101190476D01*
X112228019Y-101190476D02*
X112132780Y-101285714D01*
X112132780Y-101285714D02*
X111942304Y-101380952D01*
X111942304Y-101380952D02*
X111466114Y-101380952D01*
X111466114Y-101380952D02*
X111275638Y-101285714D01*
X111275638Y-101285714D02*
X111180400Y-101190476D01*
X111180400Y-101190476D02*
X111085161Y-101000000D01*
X111085161Y-101000000D02*
X111085161Y-100523809D01*
X111085161Y-100523809D02*
X111180400Y-100333333D01*
X111180400Y-100333333D02*
X111275638Y-100238095D01*
X111085161Y-102333333D02*
X111085161Y-102714285D01*
X111085161Y-102714285D02*
X111180400Y-102904762D01*
X111180400Y-102904762D02*
X111275638Y-103000000D01*
X111275638Y-103000000D02*
X111561352Y-103190476D01*
X111561352Y-103190476D02*
X111942304Y-103285714D01*
X111942304Y-103285714D02*
X112704209Y-103285714D01*
X112704209Y-103285714D02*
X112894685Y-103190476D01*
X112894685Y-103190476D02*
X112989923Y-103095238D01*
X112989923Y-103095238D02*
X113085161Y-102904762D01*
X113085161Y-102904762D02*
X113085161Y-102523809D01*
X113085161Y-102523809D02*
X112989923Y-102333333D01*
X112989923Y-102333333D02*
X112894685Y-102238095D01*
X112894685Y-102238095D02*
X112704209Y-102142857D01*
X112704209Y-102142857D02*
X112228019Y-102142857D01*
X112228019Y-102142857D02*
X112037542Y-102238095D01*
X112037542Y-102238095D02*
X111942304Y-102333333D01*
X111942304Y-102333333D02*
X111847066Y-102523809D01*
X111847066Y-102523809D02*
X111847066Y-102904762D01*
X111847066Y-102904762D02*
X111942304Y-103095238D01*
X111942304Y-103095238D02*
X112037542Y-103190476D01*
X112037542Y-103190476D02*
X112228019Y-103285714D01*
X112894685Y-104047619D02*
X112989923Y-104142857D01*
X112989923Y-104142857D02*
X113085161Y-104333333D01*
X113085161Y-104333333D02*
X113085161Y-104809524D01*
X113085161Y-104809524D02*
X112989923Y-105000000D01*
X112989923Y-105000000D02*
X112894685Y-105095238D01*
X112894685Y-105095238D02*
X112704209Y-105190476D01*
X112704209Y-105190476D02*
X112513733Y-105190476D01*
X112513733Y-105190476D02*
X112228019Y-105095238D01*
X112228019Y-105095238D02*
X111085161Y-103952381D01*
X111085161Y-103952381D02*
X111085161Y-105190476D01*
X113085161Y-107000000D02*
X113085161Y-106047619D01*
X113085161Y-106047619D02*
X112132780Y-105952381D01*
X112132780Y-105952381D02*
X112228019Y-106047619D01*
X112228019Y-106047619D02*
X112323257Y-106238095D01*
X112323257Y-106238095D02*
X112323257Y-106714286D01*
X112323257Y-106714286D02*
X112228019Y-106904762D01*
X112228019Y-106904762D02*
X112132780Y-107000000D01*
X112132780Y-107000000D02*
X111942304Y-107095238D01*
X111942304Y-107095238D02*
X111466114Y-107095238D01*
X111466114Y-107095238D02*
X111275638Y-107000000D01*
X111275638Y-107000000D02*
X111180400Y-106904762D01*
X111180400Y-106904762D02*
X111085161Y-106714286D01*
X111085161Y-106714286D02*
X111085161Y-106238095D01*
X111085161Y-106238095D02*
X111180400Y-106047619D01*
X111180400Y-106047619D02*
X111275638Y-105952381D01*
D11*
X91500000Y-93000000D02*
X92000000Y-93000000D01*
X91500000Y-92500000D02*
X91500000Y-93000000D01*
X105500000Y-93000000D02*
X106000000Y-93000000D01*
X105500000Y-92500000D02*
X105500000Y-93000000D01*
%LPC*%
D13*
X94000000Y-100000000D03*
D14*
X93000000Y-92000000D03*
X93000000Y-90000000D03*
X93000000Y-88000000D03*
X93000000Y-86000000D03*
X107000000Y-92000000D03*
X107000000Y-90000000D03*
X107000000Y-88000000D03*
X107000000Y-86000000D03*
%LPD*%
M02*
