%TF.GenerationSoftware,KiCad,Pcbnew,8.0.7*%
%TF.CreationDate,2025-03-03T17:11:46+00:00*%
%TF.ProjectId,view_screen,76696577-5f73-4637-9265-656e2e6b6963,rev?*%
%TF.SameCoordinates,Original*%
%TF.FileFunction,Drillmap*%
%TF.FilePolarity,Positive*%
%FSLAX45Y45*%
G04 Gerber Fmt 4.5, Leading zero omitted, Abs format (unit mm)*
G04 Created by KiCad (PCBNEW 8.0.7) date 2025-03-03 17:11:46*
%MOMM*%
%LPD*%
G01*
G04 APERTURE LIST*
%ADD10C,0.200000*%
G04 APERTURE END LIST*
D10*
X10100000Y-9100000D02*
G75*
G02*
X9900000Y-9100000I-100000J0D01*
G01*
X9900000Y-8500000D02*
X9900000Y-9100000D01*
X10100000Y-9100000D02*
X10100000Y-8500000D01*
X9900000Y-8500000D02*
G75*
G02*
X10100000Y-8500000I100000J0D01*
G01*
X11750000Y-10000000D02*
G75*
G02*
X8250000Y-10000000I-1750000J0D01*
G01*
X8250000Y-10000000D02*
G75*
G02*
X11750000Y-10000000I1750000J0D01*
G01*
X10405000Y-10000000D02*
G75*
G02*
X9595000Y-10000000I-405000J0D01*
G01*
X9595000Y-10000000D02*
G75*
G02*
X10405000Y-10000000I405000J0D01*
G01*
X8500777Y-12071484D02*
X8500777Y-11871484D01*
X8500777Y-11871484D02*
X8548396Y-11871484D01*
X8548396Y-11871484D02*
X8576967Y-11881008D01*
X8576967Y-11881008D02*
X8596015Y-11900055D01*
X8596015Y-11900055D02*
X8605539Y-11919103D01*
X8605539Y-11919103D02*
X8615063Y-11957198D01*
X8615063Y-11957198D02*
X8615063Y-11985769D01*
X8615063Y-11985769D02*
X8605539Y-12023865D01*
X8605539Y-12023865D02*
X8596015Y-12042912D01*
X8596015Y-12042912D02*
X8576967Y-12061960D01*
X8576967Y-12061960D02*
X8548396Y-12071484D01*
X8548396Y-12071484D02*
X8500777Y-12071484D01*
X8700777Y-12071484D02*
X8700777Y-11938150D01*
X8700777Y-11976246D02*
X8710301Y-11957198D01*
X8710301Y-11957198D02*
X8719824Y-11947674D01*
X8719824Y-11947674D02*
X8738872Y-11938150D01*
X8738872Y-11938150D02*
X8757920Y-11938150D01*
X8824586Y-12071484D02*
X8824586Y-11938150D01*
X8824586Y-11871484D02*
X8815063Y-11881008D01*
X8815063Y-11881008D02*
X8824586Y-11890531D01*
X8824586Y-11890531D02*
X8834110Y-11881008D01*
X8834110Y-11881008D02*
X8824586Y-11871484D01*
X8824586Y-11871484D02*
X8824586Y-11890531D01*
X8948396Y-12071484D02*
X8929348Y-12061960D01*
X8929348Y-12061960D02*
X8919824Y-12042912D01*
X8919824Y-12042912D02*
X8919824Y-11871484D01*
X9053158Y-12071484D02*
X9034110Y-12061960D01*
X9034110Y-12061960D02*
X9024586Y-12042912D01*
X9024586Y-12042912D02*
X9024586Y-11871484D01*
X9281729Y-12071484D02*
X9281729Y-11871484D01*
X9281729Y-11871484D02*
X9348396Y-12014341D01*
X9348396Y-12014341D02*
X9415063Y-11871484D01*
X9415063Y-11871484D02*
X9415063Y-12071484D01*
X9596015Y-12071484D02*
X9596015Y-11966722D01*
X9596015Y-11966722D02*
X9586491Y-11947674D01*
X9586491Y-11947674D02*
X9567444Y-11938150D01*
X9567444Y-11938150D02*
X9529348Y-11938150D01*
X9529348Y-11938150D02*
X9510301Y-11947674D01*
X9596015Y-12061960D02*
X9576967Y-12071484D01*
X9576967Y-12071484D02*
X9529348Y-12071484D01*
X9529348Y-12071484D02*
X9510301Y-12061960D01*
X9510301Y-12061960D02*
X9500777Y-12042912D01*
X9500777Y-12042912D02*
X9500777Y-12023865D01*
X9500777Y-12023865D02*
X9510301Y-12004817D01*
X9510301Y-12004817D02*
X9529348Y-11995293D01*
X9529348Y-11995293D02*
X9576967Y-11995293D01*
X9576967Y-11995293D02*
X9596015Y-11985769D01*
X9691253Y-11938150D02*
X9691253Y-12138150D01*
X9691253Y-11947674D02*
X9710301Y-11938150D01*
X9710301Y-11938150D02*
X9748396Y-11938150D01*
X9748396Y-11938150D02*
X9767444Y-11947674D01*
X9767444Y-11947674D02*
X9776967Y-11957198D01*
X9776967Y-11957198D02*
X9786491Y-11976246D01*
X9786491Y-11976246D02*
X9786491Y-12033388D01*
X9786491Y-12033388D02*
X9776967Y-12052436D01*
X9776967Y-12052436D02*
X9767444Y-12061960D01*
X9767444Y-12061960D02*
X9748396Y-12071484D01*
X9748396Y-12071484D02*
X9710301Y-12071484D01*
X9710301Y-12071484D02*
X9691253Y-12061960D01*
X9872205Y-12052436D02*
X9881729Y-12061960D01*
X9881729Y-12061960D02*
X9872205Y-12071484D01*
X9872205Y-12071484D02*
X9862682Y-12061960D01*
X9862682Y-12061960D02*
X9872205Y-12052436D01*
X9872205Y-12052436D02*
X9872205Y-12071484D01*
X9872205Y-11947674D02*
X9881729Y-11957198D01*
X9881729Y-11957198D02*
X9872205Y-11966722D01*
X9872205Y-11966722D02*
X9862682Y-11957198D01*
X9862682Y-11957198D02*
X9872205Y-11947674D01*
X9872205Y-11947674D02*
X9872205Y-11966722D01*
M02*
