G04 #@! TF.GenerationSoftware,KiCad,Pcbnew,8.0.7*
G04 #@! TF.CreationDate,2025-03-03T17:10:54+00:00*
G04 #@! TF.ProjectId,view_screen,76696577-5f73-4637-9265-656e2e6b6963,rev?*
G04 #@! TF.SameCoordinates,Original*
G04 #@! TF.FileFunction,Legend,Bot*
G04 #@! TF.FilePolarity,Positive*
%FSLAX46Y46*%
G04 Gerber Fmt 4.6, Leading zero omitted, Abs format (unit mm)*
G04 Created by KiCad (PCBNEW 8.0.7) date 2025-03-03 17:10:54*
%MOMM*%
%LPD*%
G01*
G04 APERTURE LIST*
G04 Aperture macros list*
%AMRoundRect*
0 Rectangle with rounded corners*
0 $1 Rounding radius*
0 $2 $3 $4 $5 $6 $7 $8 $9 X,Y pos of 4 corners*
0 Add a 4 corners polygon primitive as box body*
4,1,4,$2,$3,$4,$5,$6,$7,$8,$9,$2,$3,0*
0 Add four circle primitives for the rounded corners*
1,1,$1+$1,$2,$3*
1,1,$1+$1,$4,$5*
1,1,$1+$1,$6,$7*
1,1,$1+$1,$8,$9*
0 Add four rect primitives between the rounded corners*
20,1,$1+$1,$2,$3,$4,$5,0*
20,1,$1+$1,$4,$5,$6,$7,0*
20,1,$1+$1,$6,$7,$8,$9,0*
20,1,$1+$1,$8,$9,$2,$3,0*%
G04 Aperture macros list end*
%ADD10C,0.120000*%
%ADD11C,0.270000*%
%ADD12C,0.150000*%
%ADD13C,0.100000*%
%ADD14C,2.400000*%
%ADD15RoundRect,0.087500X0.087500X-0.912500X0.087500X0.912500X-0.087500X0.912500X-0.087500X-0.912500X0*%
%ADD16RoundRect,0.150000X0.587500X0.150000X-0.587500X0.150000X-0.587500X-0.150000X0.587500X-0.150000X0*%
%ADD17RoundRect,0.200000X0.200000X0.275000X-0.200000X0.275000X-0.200000X-0.275000X0.200000X-0.275000X0*%
%ADD18RoundRect,0.200000X-0.275000X0.200000X-0.275000X-0.200000X0.275000X-0.200000X0.275000X0.200000X0*%
%ADD19RoundRect,0.200000X-0.200000X-0.275000X0.200000X-0.275000X0.200000X0.275000X-0.200000X0.275000X0*%
%ADD20RoundRect,0.225000X-0.250000X0.225000X-0.250000X-0.225000X0.250000X-0.225000X0.250000X0.225000X0*%
%ADD21RoundRect,0.250000X-0.475000X0.250000X-0.475000X-0.250000X0.475000X-0.250000X0.475000X0.250000X0*%
%ADD22O,2.500000X1.250000*%
G04 APERTURE END LIST*
D10*
X93466581Y-102512854D02*
G75*
G02*
X100000000Y-107000000I6533419J2512854D01*
G01*
X98500000Y-85000000D02*
X94500000Y-86000000D01*
X98500000Y-91000000D02*
X94500000Y-92000000D01*
X101500000Y-85000000D02*
X105500000Y-86000000D01*
X101500000Y-91000000D02*
X105500000Y-92000000D01*
X101500000Y-89000000D02*
X105500000Y-90000000D01*
X101500000Y-87000000D02*
X105500000Y-88000000D01*
X98500000Y-87000000D02*
X94500000Y-88000000D01*
X98500000Y-89000000D02*
X94500000Y-90000000D01*
X96449625Y-104599927D02*
X96492482Y-104642785D01*
X96492482Y-104642785D02*
X96621054Y-104685642D01*
X96621054Y-104685642D02*
X96706768Y-104685642D01*
X96706768Y-104685642D02*
X96835339Y-104642785D01*
X96835339Y-104642785D02*
X96921054Y-104557070D01*
X96921054Y-104557070D02*
X96963911Y-104471356D01*
X96963911Y-104471356D02*
X97006768Y-104299927D01*
X97006768Y-104299927D02*
X97006768Y-104171356D01*
X97006768Y-104171356D02*
X96963911Y-103999927D01*
X96963911Y-103999927D02*
X96921054Y-103914213D01*
X96921054Y-103914213D02*
X96835339Y-103828499D01*
X96835339Y-103828499D02*
X96706768Y-103785642D01*
X96706768Y-103785642D02*
X96621054Y-103785642D01*
X96621054Y-103785642D02*
X96492482Y-103828499D01*
X96492482Y-103828499D02*
X96449625Y-103871356D01*
X95892482Y-103785642D02*
X95721054Y-103785642D01*
X95721054Y-103785642D02*
X95635339Y-103828499D01*
X95635339Y-103828499D02*
X95549625Y-103914213D01*
X95549625Y-103914213D02*
X95506768Y-104085642D01*
X95506768Y-104085642D02*
X95506768Y-104385642D01*
X95506768Y-104385642D02*
X95549625Y-104557070D01*
X95549625Y-104557070D02*
X95635339Y-104642785D01*
X95635339Y-104642785D02*
X95721054Y-104685642D01*
X95721054Y-104685642D02*
X95892482Y-104685642D01*
X95892482Y-104685642D02*
X95978197Y-104642785D01*
X95978197Y-104642785D02*
X96063911Y-104557070D01*
X96063911Y-104557070D02*
X96106768Y-104385642D01*
X96106768Y-104385642D02*
X96106768Y-104085642D01*
X96106768Y-104085642D02*
X96063911Y-103914213D01*
X96063911Y-103914213D02*
X95978197Y-103828499D01*
X95978197Y-103828499D02*
X95892482Y-103785642D01*
X95121054Y-104685642D02*
X95121054Y-103785642D01*
X95121054Y-103785642D02*
X94821054Y-104428499D01*
X94821054Y-104428499D02*
X94521054Y-103785642D01*
X94521054Y-103785642D02*
X94521054Y-104685642D01*
X94092483Y-104685642D02*
X94092483Y-103785642D01*
X94092483Y-103785642D02*
X93792483Y-104428499D01*
X93792483Y-104428499D02*
X93492483Y-103785642D01*
X93492483Y-103785642D02*
X93492483Y-104685642D01*
X93063912Y-104685642D02*
X93063912Y-103785642D01*
X92763912Y-103785642D02*
X92249627Y-103785642D01*
X92506769Y-104685642D02*
X92506769Y-103785642D01*
X91949627Y-104599927D02*
X91906770Y-104642785D01*
X91906770Y-104642785D02*
X91949627Y-104685642D01*
X91949627Y-104685642D02*
X91992484Y-104642785D01*
X91992484Y-104642785D02*
X91949627Y-104599927D01*
X91949627Y-104599927D02*
X91949627Y-104685642D01*
X91949627Y-104128499D02*
X91906770Y-104171356D01*
X91906770Y-104171356D02*
X91949627Y-104214213D01*
X91949627Y-104214213D02*
X91992484Y-104171356D01*
X91992484Y-104171356D02*
X91949627Y-104128499D01*
X91949627Y-104128499D02*
X91949627Y-104214213D01*
X90449628Y-104685642D02*
X90449628Y-103785642D01*
X90449628Y-104642785D02*
X90535342Y-104685642D01*
X90535342Y-104685642D02*
X90706770Y-104685642D01*
X90706770Y-104685642D02*
X90792485Y-104642785D01*
X90792485Y-104642785D02*
X90835342Y-104599927D01*
X90835342Y-104599927D02*
X90878199Y-104514213D01*
X90878199Y-104514213D02*
X90878199Y-104257070D01*
X90878199Y-104257070D02*
X90835342Y-104171356D01*
X90835342Y-104171356D02*
X90792485Y-104128499D01*
X90792485Y-104128499D02*
X90706770Y-104085642D01*
X90706770Y-104085642D02*
X90535342Y-104085642D01*
X90535342Y-104085642D02*
X90449628Y-104128499D01*
X89678199Y-104642785D02*
X89763913Y-104685642D01*
X89763913Y-104685642D02*
X89935342Y-104685642D01*
X89935342Y-104685642D02*
X90021056Y-104642785D01*
X90021056Y-104642785D02*
X90063913Y-104557070D01*
X90063913Y-104557070D02*
X90063913Y-104214213D01*
X90063913Y-104214213D02*
X90021056Y-104128499D01*
X90021056Y-104128499D02*
X89935342Y-104085642D01*
X89935342Y-104085642D02*
X89763913Y-104085642D01*
X89763913Y-104085642D02*
X89678199Y-104128499D01*
X89678199Y-104128499D02*
X89635342Y-104214213D01*
X89635342Y-104214213D02*
X89635342Y-104299927D01*
X89635342Y-104299927D02*
X90063913Y-104385642D01*
X88863913Y-104685642D02*
X88863913Y-104214213D01*
X88863913Y-104214213D02*
X88906770Y-104128499D01*
X88906770Y-104128499D02*
X88992484Y-104085642D01*
X88992484Y-104085642D02*
X89163913Y-104085642D01*
X89163913Y-104085642D02*
X89249627Y-104128499D01*
X88863913Y-104642785D02*
X88949627Y-104685642D01*
X88949627Y-104685642D02*
X89163913Y-104685642D01*
X89163913Y-104685642D02*
X89249627Y-104642785D01*
X89249627Y-104642785D02*
X89292484Y-104557070D01*
X89292484Y-104557070D02*
X89292484Y-104471356D01*
X89292484Y-104471356D02*
X89249627Y-104385642D01*
X89249627Y-104385642D02*
X89163913Y-104342785D01*
X89163913Y-104342785D02*
X88949627Y-104342785D01*
X88949627Y-104342785D02*
X88863913Y-104299927D01*
X88049627Y-104685642D02*
X88049627Y-103785642D01*
X88049627Y-104642785D02*
X88135341Y-104685642D01*
X88135341Y-104685642D02*
X88306769Y-104685642D01*
X88306769Y-104685642D02*
X88392484Y-104642785D01*
X88392484Y-104642785D02*
X88435341Y-104599927D01*
X88435341Y-104599927D02*
X88478198Y-104514213D01*
X88478198Y-104514213D02*
X88478198Y-104257070D01*
X88478198Y-104257070D02*
X88435341Y-104171356D01*
X88435341Y-104171356D02*
X88392484Y-104128499D01*
X88392484Y-104128499D02*
X88306769Y-104085642D01*
X88306769Y-104085642D02*
X88135341Y-104085642D01*
X88135341Y-104085642D02*
X88049627Y-104128499D01*
X87621055Y-104685642D02*
X87621055Y-103785642D01*
X87621055Y-104128499D02*
X87535341Y-104085642D01*
X87535341Y-104085642D02*
X87363912Y-104085642D01*
X87363912Y-104085642D02*
X87278198Y-104128499D01*
X87278198Y-104128499D02*
X87235341Y-104171356D01*
X87235341Y-104171356D02*
X87192483Y-104257070D01*
X87192483Y-104257070D02*
X87192483Y-104514213D01*
X87192483Y-104514213D02*
X87235341Y-104599927D01*
X87235341Y-104599927D02*
X87278198Y-104642785D01*
X87278198Y-104642785D02*
X87363912Y-104685642D01*
X87363912Y-104685642D02*
X87535341Y-104685642D01*
X87535341Y-104685642D02*
X87621055Y-104642785D01*
X86463912Y-104642785D02*
X86549626Y-104685642D01*
X86549626Y-104685642D02*
X86721055Y-104685642D01*
X86721055Y-104685642D02*
X86806769Y-104642785D01*
X86806769Y-104642785D02*
X86849626Y-104557070D01*
X86849626Y-104557070D02*
X86849626Y-104214213D01*
X86849626Y-104214213D02*
X86806769Y-104128499D01*
X86806769Y-104128499D02*
X86721055Y-104085642D01*
X86721055Y-104085642D02*
X86549626Y-104085642D01*
X86549626Y-104085642D02*
X86463912Y-104128499D01*
X86463912Y-104128499D02*
X86421055Y-104214213D01*
X86421055Y-104214213D02*
X86421055Y-104299927D01*
X86421055Y-104299927D02*
X86849626Y-104385642D01*
X85692483Y-104642785D02*
X85778197Y-104685642D01*
X85778197Y-104685642D02*
X85949626Y-104685642D01*
X85949626Y-104685642D02*
X86035340Y-104642785D01*
X86035340Y-104642785D02*
X86078197Y-104557070D01*
X86078197Y-104557070D02*
X86078197Y-104214213D01*
X86078197Y-104214213D02*
X86035340Y-104128499D01*
X86035340Y-104128499D02*
X85949626Y-104085642D01*
X85949626Y-104085642D02*
X85778197Y-104085642D01*
X85778197Y-104085642D02*
X85692483Y-104128499D01*
X85692483Y-104128499D02*
X85649626Y-104214213D01*
X85649626Y-104214213D02*
X85649626Y-104299927D01*
X85649626Y-104299927D02*
X86078197Y-104385642D01*
X85392482Y-104085642D02*
X85049625Y-104085642D01*
X85263911Y-104685642D02*
X85263911Y-103914213D01*
X85263911Y-103914213D02*
X85221054Y-103828499D01*
X85221054Y-103828499D02*
X85135339Y-103785642D01*
X85135339Y-103785642D02*
X85049625Y-103785642D01*
X99706767Y-106134592D02*
X99706767Y-105234592D01*
X99706767Y-105234592D02*
X99492481Y-105234592D01*
X99492481Y-105234592D02*
X99363910Y-105277449D01*
X99363910Y-105277449D02*
X99278195Y-105363163D01*
X99278195Y-105363163D02*
X99235338Y-105448877D01*
X99235338Y-105448877D02*
X99192481Y-105620306D01*
X99192481Y-105620306D02*
X99192481Y-105748877D01*
X99192481Y-105748877D02*
X99235338Y-105920306D01*
X99235338Y-105920306D02*
X99278195Y-106006020D01*
X99278195Y-106006020D02*
X99363910Y-106091735D01*
X99363910Y-106091735D02*
X99492481Y-106134592D01*
X99492481Y-106134592D02*
X99706767Y-106134592D01*
X98849624Y-105877449D02*
X98421053Y-105877449D01*
X98935338Y-106134592D02*
X98635338Y-105234592D01*
X98635338Y-105234592D02*
X98335338Y-106134592D01*
X98163909Y-105234592D02*
X97649624Y-105234592D01*
X97906766Y-106134592D02*
X97906766Y-105234592D01*
X97349624Y-105663163D02*
X97049624Y-105663163D01*
X96921052Y-106134592D02*
X97349624Y-106134592D01*
X97349624Y-106134592D02*
X97349624Y-105234592D01*
X97349624Y-105234592D02*
X96921052Y-105234592D01*
X96535338Y-106048877D02*
X96492481Y-106091735D01*
X96492481Y-106091735D02*
X96535338Y-106134592D01*
X96535338Y-106134592D02*
X96578195Y-106091735D01*
X96578195Y-106091735D02*
X96535338Y-106048877D01*
X96535338Y-106048877D02*
X96535338Y-106134592D01*
X96535338Y-105577449D02*
X96492481Y-105620306D01*
X96492481Y-105620306D02*
X96535338Y-105663163D01*
X96535338Y-105663163D02*
X96578195Y-105620306D01*
X96578195Y-105620306D02*
X96535338Y-105577449D01*
X96535338Y-105577449D02*
X96535338Y-105663163D01*
X95249624Y-105706020D02*
X95249624Y-106134592D01*
X95549624Y-105234592D02*
X95249624Y-105706020D01*
X95249624Y-105706020D02*
X94949624Y-105234592D01*
X94478195Y-105706020D02*
X94478195Y-106134592D01*
X94778195Y-105234592D02*
X94478195Y-105706020D01*
X94478195Y-105706020D02*
X94178195Y-105234592D01*
X93706766Y-105706020D02*
X93706766Y-106134592D01*
X94006766Y-105234592D02*
X93706766Y-105706020D01*
X93706766Y-105706020D02*
X93406766Y-105234592D01*
X92935337Y-105706020D02*
X92935337Y-106134592D01*
X93235337Y-105234592D02*
X92935337Y-105706020D01*
X92935337Y-105706020D02*
X92635337Y-105234592D01*
X92335337Y-105791735D02*
X91649623Y-105791735D01*
X91221051Y-106134592D02*
X91221051Y-105234592D01*
X91221051Y-105234592D02*
X90921051Y-105877449D01*
X90921051Y-105877449D02*
X90621051Y-105234592D01*
X90621051Y-105234592D02*
X90621051Y-106134592D01*
X90192480Y-106134592D02*
X90192480Y-105234592D01*
X90192480Y-105234592D02*
X89892480Y-105877449D01*
X89892480Y-105877449D02*
X89592480Y-105234592D01*
X89592480Y-105234592D02*
X89592480Y-106134592D01*
X89163909Y-105791735D02*
X88478195Y-105791735D01*
X88049623Y-106134592D02*
X88049623Y-105234592D01*
X88049623Y-105234592D02*
X87835337Y-105234592D01*
X87835337Y-105234592D02*
X87706766Y-105277449D01*
X87706766Y-105277449D02*
X87621051Y-105363163D01*
X87621051Y-105363163D02*
X87578194Y-105448877D01*
X87578194Y-105448877D02*
X87535337Y-105620306D01*
X87535337Y-105620306D02*
X87535337Y-105748877D01*
X87535337Y-105748877D02*
X87578194Y-105920306D01*
X87578194Y-105920306D02*
X87621051Y-106006020D01*
X87621051Y-106006020D02*
X87706766Y-106091735D01*
X87706766Y-106091735D02*
X87835337Y-106134592D01*
X87835337Y-106134592D02*
X88049623Y-106134592D01*
X87149623Y-106134592D02*
X87149623Y-105234592D01*
X87149623Y-105234592D02*
X86935337Y-105234592D01*
X86935337Y-105234592D02*
X86806766Y-105277449D01*
X86806766Y-105277449D02*
X86721051Y-105363163D01*
X86721051Y-105363163D02*
X86678194Y-105448877D01*
X86678194Y-105448877D02*
X86635337Y-105620306D01*
X86635337Y-105620306D02*
X86635337Y-105748877D01*
X86635337Y-105748877D02*
X86678194Y-105920306D01*
X86678194Y-105920306D02*
X86721051Y-106006020D01*
X86721051Y-106006020D02*
X86806766Y-106091735D01*
X86806766Y-106091735D02*
X86935337Y-106134592D01*
X86935337Y-106134592D02*
X87149623Y-106134592D01*
D11*
X115955702Y-94966960D02*
X115755702Y-95033626D01*
X115755702Y-95033626D02*
X115422369Y-95033626D01*
X115422369Y-95033626D02*
X115289035Y-94966960D01*
X115289035Y-94966960D02*
X115222369Y-94900293D01*
X115222369Y-94900293D02*
X115155702Y-94766960D01*
X115155702Y-94766960D02*
X115155702Y-94633626D01*
X115155702Y-94633626D02*
X115222369Y-94500293D01*
X115222369Y-94500293D02*
X115289035Y-94433626D01*
X115289035Y-94433626D02*
X115422369Y-94366960D01*
X115422369Y-94366960D02*
X115689035Y-94300293D01*
X115689035Y-94300293D02*
X115822369Y-94233626D01*
X115822369Y-94233626D02*
X115889035Y-94166960D01*
X115889035Y-94166960D02*
X115955702Y-94033626D01*
X115955702Y-94033626D02*
X115955702Y-93900293D01*
X115955702Y-93900293D02*
X115889035Y-93766960D01*
X115889035Y-93766960D02*
X115822369Y-93700293D01*
X115822369Y-93700293D02*
X115689035Y-93633626D01*
X115689035Y-93633626D02*
X115355702Y-93633626D01*
X115355702Y-93633626D02*
X115155702Y-93700293D01*
X114555702Y-95033626D02*
X114555702Y-94100293D01*
X114555702Y-94233626D02*
X114489036Y-94166960D01*
X114489036Y-94166960D02*
X114355702Y-94100293D01*
X114355702Y-94100293D02*
X114155702Y-94100293D01*
X114155702Y-94100293D02*
X114022369Y-94166960D01*
X114022369Y-94166960D02*
X113955702Y-94300293D01*
X113955702Y-94300293D02*
X113955702Y-95033626D01*
X113955702Y-94300293D02*
X113889036Y-94166960D01*
X113889036Y-94166960D02*
X113755702Y-94100293D01*
X113755702Y-94100293D02*
X113555702Y-94100293D01*
X113555702Y-94100293D02*
X113422369Y-94166960D01*
X113422369Y-94166960D02*
X113355702Y-94300293D01*
X113355702Y-94300293D02*
X113355702Y-95033626D01*
X112089035Y-95033626D02*
X112089035Y-94300293D01*
X112089035Y-94300293D02*
X112155702Y-94166960D01*
X112155702Y-94166960D02*
X112289035Y-94100293D01*
X112289035Y-94100293D02*
X112555702Y-94100293D01*
X112555702Y-94100293D02*
X112689035Y-94166960D01*
X112089035Y-94966960D02*
X112222369Y-95033626D01*
X112222369Y-95033626D02*
X112555702Y-95033626D01*
X112555702Y-95033626D02*
X112689035Y-94966960D01*
X112689035Y-94966960D02*
X112755702Y-94833626D01*
X112755702Y-94833626D02*
X112755702Y-94700293D01*
X112755702Y-94700293D02*
X112689035Y-94566960D01*
X112689035Y-94566960D02*
X112555702Y-94500293D01*
X112555702Y-94500293D02*
X112222369Y-94500293D01*
X112222369Y-94500293D02*
X112089035Y-94433626D01*
X111422368Y-95033626D02*
X111422368Y-94100293D01*
X111422368Y-94366960D02*
X111355702Y-94233626D01*
X111355702Y-94233626D02*
X111289035Y-94166960D01*
X111289035Y-94166960D02*
X111155702Y-94100293D01*
X111155702Y-94100293D02*
X111022368Y-94100293D01*
X110755701Y-94100293D02*
X110222368Y-94100293D01*
X110555701Y-93633626D02*
X110555701Y-94833626D01*
X110555701Y-94833626D02*
X110489035Y-94966960D01*
X110489035Y-94966960D02*
X110355701Y-95033626D01*
X110355701Y-95033626D02*
X110222368Y-95033626D01*
X109755701Y-95033626D02*
X109755701Y-93633626D01*
X108955701Y-95033626D02*
X109555701Y-94233626D01*
X108955701Y-93633626D02*
X109755701Y-94433626D01*
X108355701Y-94100293D02*
X108355701Y-95033626D01*
X108355701Y-94233626D02*
X108289035Y-94166960D01*
X108289035Y-94166960D02*
X108155701Y-94100293D01*
X108155701Y-94100293D02*
X107955701Y-94100293D01*
X107955701Y-94100293D02*
X107822368Y-94166960D01*
X107822368Y-94166960D02*
X107755701Y-94300293D01*
X107755701Y-94300293D02*
X107755701Y-95033626D01*
X106889034Y-95033626D02*
X107022368Y-94966960D01*
X107022368Y-94966960D02*
X107089034Y-94900293D01*
X107089034Y-94900293D02*
X107155701Y-94766960D01*
X107155701Y-94766960D02*
X107155701Y-94366960D01*
X107155701Y-94366960D02*
X107089034Y-94233626D01*
X107089034Y-94233626D02*
X107022368Y-94166960D01*
X107022368Y-94166960D02*
X106889034Y-94100293D01*
X106889034Y-94100293D02*
X106689034Y-94100293D01*
X106689034Y-94100293D02*
X106555701Y-94166960D01*
X106555701Y-94166960D02*
X106489034Y-94233626D01*
X106489034Y-94233626D02*
X106422368Y-94366960D01*
X106422368Y-94366960D02*
X106422368Y-94766960D01*
X106422368Y-94766960D02*
X106489034Y-94900293D01*
X106489034Y-94900293D02*
X106555701Y-94966960D01*
X106555701Y-94966960D02*
X106689034Y-95033626D01*
X106689034Y-95033626D02*
X106889034Y-95033626D01*
X105822367Y-95033626D02*
X105822367Y-93633626D01*
X105822367Y-94166960D02*
X105689034Y-94100293D01*
X105689034Y-94100293D02*
X105422367Y-94100293D01*
X105422367Y-94100293D02*
X105289034Y-94166960D01*
X105289034Y-94166960D02*
X105222367Y-94233626D01*
X105222367Y-94233626D02*
X105155701Y-94366960D01*
X105155701Y-94366960D02*
X105155701Y-94766960D01*
X105155701Y-94766960D02*
X105222367Y-94900293D01*
X105222367Y-94900293D02*
X105289034Y-94966960D01*
X105289034Y-94966960D02*
X105422367Y-95033626D01*
X105422367Y-95033626D02*
X105689034Y-95033626D01*
X105689034Y-95033626D02*
X105822367Y-94966960D01*
X116489035Y-96033626D02*
X116022369Y-97433626D01*
X116022369Y-97433626D02*
X115555702Y-96033626D01*
X115089035Y-97433626D02*
X115089035Y-96500293D01*
X115089035Y-96033626D02*
X115155702Y-96100293D01*
X115155702Y-96100293D02*
X115089035Y-96166960D01*
X115089035Y-96166960D02*
X115022369Y-96100293D01*
X115022369Y-96100293D02*
X115089035Y-96033626D01*
X115089035Y-96033626D02*
X115089035Y-96166960D01*
X113889035Y-97366960D02*
X114022368Y-97433626D01*
X114022368Y-97433626D02*
X114289035Y-97433626D01*
X114289035Y-97433626D02*
X114422368Y-97366960D01*
X114422368Y-97366960D02*
X114489035Y-97233626D01*
X114489035Y-97233626D02*
X114489035Y-96700293D01*
X114489035Y-96700293D02*
X114422368Y-96566960D01*
X114422368Y-96566960D02*
X114289035Y-96500293D01*
X114289035Y-96500293D02*
X114022368Y-96500293D01*
X114022368Y-96500293D02*
X113889035Y-96566960D01*
X113889035Y-96566960D02*
X113822368Y-96700293D01*
X113822368Y-96700293D02*
X113822368Y-96833626D01*
X113822368Y-96833626D02*
X114489035Y-96966960D01*
X113355702Y-96500293D02*
X113089035Y-97433626D01*
X113089035Y-97433626D02*
X112822368Y-96766960D01*
X112822368Y-96766960D02*
X112555702Y-97433626D01*
X112555702Y-97433626D02*
X112289035Y-96500293D01*
D12*
X90790476Y-86454819D02*
X91123809Y-85978628D01*
X91361904Y-86454819D02*
X91361904Y-85454819D01*
X91361904Y-85454819D02*
X90980952Y-85454819D01*
X90980952Y-85454819D02*
X90885714Y-85502438D01*
X90885714Y-85502438D02*
X90838095Y-85550057D01*
X90838095Y-85550057D02*
X90790476Y-85645295D01*
X90790476Y-85645295D02*
X90790476Y-85788152D01*
X90790476Y-85788152D02*
X90838095Y-85883390D01*
X90838095Y-85883390D02*
X90885714Y-85931009D01*
X90885714Y-85931009D02*
X90980952Y-85978628D01*
X90980952Y-85978628D02*
X91361904Y-85978628D01*
X109233332Y-86454819D02*
X109233332Y-85454819D01*
X109233332Y-85454819D02*
X108899999Y-86169104D01*
X108899999Y-86169104D02*
X108566666Y-85454819D01*
X108566666Y-85454819D02*
X108566666Y-86454819D01*
X91385713Y-92407200D02*
X91242856Y-92454819D01*
X91242856Y-92454819D02*
X91004761Y-92454819D01*
X91004761Y-92454819D02*
X90909523Y-92407200D01*
X90909523Y-92407200D02*
X90861904Y-92359580D01*
X90861904Y-92359580D02*
X90814285Y-92264342D01*
X90814285Y-92264342D02*
X90814285Y-92169104D01*
X90814285Y-92169104D02*
X90861904Y-92073866D01*
X90861904Y-92073866D02*
X90909523Y-92026247D01*
X90909523Y-92026247D02*
X91004761Y-91978628D01*
X91004761Y-91978628D02*
X91195237Y-91931009D01*
X91195237Y-91931009D02*
X91290475Y-91883390D01*
X91290475Y-91883390D02*
X91338094Y-91835771D01*
X91338094Y-91835771D02*
X91385713Y-91740533D01*
X91385713Y-91740533D02*
X91385713Y-91645295D01*
X91385713Y-91645295D02*
X91338094Y-91550057D01*
X91338094Y-91550057D02*
X91290475Y-91502438D01*
X91290475Y-91502438D02*
X91195237Y-91454819D01*
X91195237Y-91454819D02*
X90957142Y-91454819D01*
X90957142Y-91454819D02*
X90814285Y-91502438D01*
X109280951Y-92073866D02*
X108519047Y-92073866D01*
X91361904Y-88454819D02*
X91361904Y-87454819D01*
X91361904Y-87454819D02*
X91123809Y-87454819D01*
X91123809Y-87454819D02*
X90980952Y-87502438D01*
X90980952Y-87502438D02*
X90885714Y-87597676D01*
X90885714Y-87597676D02*
X90838095Y-87692914D01*
X90838095Y-87692914D02*
X90790476Y-87883390D01*
X90790476Y-87883390D02*
X90790476Y-88026247D01*
X90790476Y-88026247D02*
X90838095Y-88216723D01*
X90838095Y-88216723D02*
X90885714Y-88311961D01*
X90885714Y-88311961D02*
X90980952Y-88407200D01*
X90980952Y-88407200D02*
X91123809Y-88454819D01*
X91123809Y-88454819D02*
X91361904Y-88454819D01*
X109280951Y-90073866D02*
X108519047Y-90073866D01*
X108899999Y-90454819D02*
X108899999Y-89692914D01*
D13*
X116743734Y-99204828D02*
X116600877Y-99252447D01*
X116600877Y-99252447D02*
X116362782Y-99252447D01*
X116362782Y-99252447D02*
X116267544Y-99204828D01*
X116267544Y-99204828D02*
X116219925Y-99157208D01*
X116219925Y-99157208D02*
X116172306Y-99061970D01*
X116172306Y-99061970D02*
X116172306Y-98966732D01*
X116172306Y-98966732D02*
X116219925Y-98871494D01*
X116219925Y-98871494D02*
X116267544Y-98823875D01*
X116267544Y-98823875D02*
X116362782Y-98776256D01*
X116362782Y-98776256D02*
X116553258Y-98728637D01*
X116553258Y-98728637D02*
X116648496Y-98681018D01*
X116648496Y-98681018D02*
X116696115Y-98633399D01*
X116696115Y-98633399D02*
X116743734Y-98538161D01*
X116743734Y-98538161D02*
X116743734Y-98442923D01*
X116743734Y-98442923D02*
X116696115Y-98347685D01*
X116696115Y-98347685D02*
X116648496Y-98300066D01*
X116648496Y-98300066D02*
X116553258Y-98252447D01*
X116553258Y-98252447D02*
X116315163Y-98252447D01*
X116315163Y-98252447D02*
X116172306Y-98300066D01*
X115315163Y-99204828D02*
X115410401Y-99252447D01*
X115410401Y-99252447D02*
X115600877Y-99252447D01*
X115600877Y-99252447D02*
X115696115Y-99204828D01*
X115696115Y-99204828D02*
X115743734Y-99157208D01*
X115743734Y-99157208D02*
X115791353Y-99061970D01*
X115791353Y-99061970D02*
X115791353Y-98776256D01*
X115791353Y-98776256D02*
X115743734Y-98681018D01*
X115743734Y-98681018D02*
X115696115Y-98633399D01*
X115696115Y-98633399D02*
X115600877Y-98585780D01*
X115600877Y-98585780D02*
X115410401Y-98585780D01*
X115410401Y-98585780D02*
X115315163Y-98633399D01*
X114886591Y-99252447D02*
X114886591Y-98585780D01*
X114886591Y-98776256D02*
X114838972Y-98681018D01*
X114838972Y-98681018D02*
X114791353Y-98633399D01*
X114791353Y-98633399D02*
X114696115Y-98585780D01*
X114696115Y-98585780D02*
X114600877Y-98585780D01*
X113886591Y-99204828D02*
X113981829Y-99252447D01*
X113981829Y-99252447D02*
X114172305Y-99252447D01*
X114172305Y-99252447D02*
X114267543Y-99204828D01*
X114267543Y-99204828D02*
X114315162Y-99109589D01*
X114315162Y-99109589D02*
X114315162Y-98728637D01*
X114315162Y-98728637D02*
X114267543Y-98633399D01*
X114267543Y-98633399D02*
X114172305Y-98585780D01*
X114172305Y-98585780D02*
X113981829Y-98585780D01*
X113981829Y-98585780D02*
X113886591Y-98633399D01*
X113886591Y-98633399D02*
X113838972Y-98728637D01*
X113838972Y-98728637D02*
X113838972Y-98823875D01*
X113838972Y-98823875D02*
X114315162Y-98919113D01*
X113029448Y-99204828D02*
X113124686Y-99252447D01*
X113124686Y-99252447D02*
X113315162Y-99252447D01*
X113315162Y-99252447D02*
X113410400Y-99204828D01*
X113410400Y-99204828D02*
X113458019Y-99109589D01*
X113458019Y-99109589D02*
X113458019Y-98728637D01*
X113458019Y-98728637D02*
X113410400Y-98633399D01*
X113410400Y-98633399D02*
X113315162Y-98585780D01*
X113315162Y-98585780D02*
X113124686Y-98585780D01*
X113124686Y-98585780D02*
X113029448Y-98633399D01*
X113029448Y-98633399D02*
X112981829Y-98728637D01*
X112981829Y-98728637D02*
X112981829Y-98823875D01*
X112981829Y-98823875D02*
X113458019Y-98919113D01*
X112553257Y-98585780D02*
X112553257Y-99252447D01*
X112553257Y-98681018D02*
X112505638Y-98633399D01*
X112505638Y-98633399D02*
X112410400Y-98585780D01*
X112410400Y-98585780D02*
X112267543Y-98585780D01*
X112267543Y-98585780D02*
X112172305Y-98633399D01*
X112172305Y-98633399D02*
X112124686Y-98728637D01*
X112124686Y-98728637D02*
X112124686Y-99252447D01*
X110886590Y-99252447D02*
X110886590Y-98252447D01*
X110886590Y-98252447D02*
X110505638Y-98252447D01*
X110505638Y-98252447D02*
X110410400Y-98300066D01*
X110410400Y-98300066D02*
X110362781Y-98347685D01*
X110362781Y-98347685D02*
X110315162Y-98442923D01*
X110315162Y-98442923D02*
X110315162Y-98585780D01*
X110315162Y-98585780D02*
X110362781Y-98681018D01*
X110362781Y-98681018D02*
X110410400Y-98728637D01*
X110410400Y-98728637D02*
X110505638Y-98776256D01*
X110505638Y-98776256D02*
X110886590Y-98776256D01*
X109315162Y-99157208D02*
X109362781Y-99204828D01*
X109362781Y-99204828D02*
X109505638Y-99252447D01*
X109505638Y-99252447D02*
X109600876Y-99252447D01*
X109600876Y-99252447D02*
X109743733Y-99204828D01*
X109743733Y-99204828D02*
X109838971Y-99109589D01*
X109838971Y-99109589D02*
X109886590Y-99014351D01*
X109886590Y-99014351D02*
X109934209Y-98823875D01*
X109934209Y-98823875D02*
X109934209Y-98681018D01*
X109934209Y-98681018D02*
X109886590Y-98490542D01*
X109886590Y-98490542D02*
X109838971Y-98395304D01*
X109838971Y-98395304D02*
X109743733Y-98300066D01*
X109743733Y-98300066D02*
X109600876Y-98252447D01*
X109600876Y-98252447D02*
X109505638Y-98252447D01*
X109505638Y-98252447D02*
X109362781Y-98300066D01*
X109362781Y-98300066D02*
X109315162Y-98347685D01*
X108553257Y-98728637D02*
X108410400Y-98776256D01*
X108410400Y-98776256D02*
X108362781Y-98823875D01*
X108362781Y-98823875D02*
X108315162Y-98919113D01*
X108315162Y-98919113D02*
X108315162Y-99061970D01*
X108315162Y-99061970D02*
X108362781Y-99157208D01*
X108362781Y-99157208D02*
X108410400Y-99204828D01*
X108410400Y-99204828D02*
X108505638Y-99252447D01*
X108505638Y-99252447D02*
X108886590Y-99252447D01*
X108886590Y-99252447D02*
X108886590Y-98252447D01*
X108886590Y-98252447D02*
X108553257Y-98252447D01*
X108553257Y-98252447D02*
X108458019Y-98300066D01*
X108458019Y-98300066D02*
X108410400Y-98347685D01*
X108410400Y-98347685D02*
X108362781Y-98442923D01*
X108362781Y-98442923D02*
X108362781Y-98538161D01*
X108362781Y-98538161D02*
X108410400Y-98633399D01*
X108410400Y-98633399D02*
X108458019Y-98681018D01*
X108458019Y-98681018D02*
X108553257Y-98728637D01*
X108553257Y-98728637D02*
X108886590Y-98728637D01*
X116791353Y-100195724D02*
X116553258Y-100862391D01*
X116553258Y-100862391D02*
X116315163Y-100195724D01*
X115981829Y-100195724D02*
X115267544Y-100195724D01*
X115696115Y-99767152D02*
X115981829Y-101052867D01*
X115362782Y-100624295D02*
X116077067Y-100624295D01*
X115648496Y-101052867D02*
X115362782Y-99767152D01*
X114934210Y-100767152D02*
X114886591Y-100814772D01*
X114886591Y-100814772D02*
X114934210Y-100862391D01*
X114934210Y-100862391D02*
X114981829Y-100814772D01*
X114981829Y-100814772D02*
X114934210Y-100767152D01*
X114934210Y-100767152D02*
X114934210Y-100862391D01*
X114505639Y-100195724D02*
X113791354Y-100195724D01*
X114219925Y-99767152D02*
X114505639Y-101052867D01*
X113886592Y-100624295D02*
X114600877Y-100624295D01*
X114172306Y-101052867D02*
X113886592Y-99767152D01*
D12*
X90790476Y-90359580D02*
X90838095Y-90407200D01*
X90838095Y-90407200D02*
X90980952Y-90454819D01*
X90980952Y-90454819D02*
X91076190Y-90454819D01*
X91076190Y-90454819D02*
X91219047Y-90407200D01*
X91219047Y-90407200D02*
X91314285Y-90311961D01*
X91314285Y-90311961D02*
X91361904Y-90216723D01*
X91361904Y-90216723D02*
X91409523Y-90026247D01*
X91409523Y-90026247D02*
X91409523Y-89883390D01*
X91409523Y-89883390D02*
X91361904Y-89692914D01*
X91361904Y-89692914D02*
X91314285Y-89597676D01*
X91314285Y-89597676D02*
X91219047Y-89502438D01*
X91219047Y-89502438D02*
X91076190Y-89454819D01*
X91076190Y-89454819D02*
X90980952Y-89454819D01*
X90980952Y-89454819D02*
X90838095Y-89502438D01*
X90838095Y-89502438D02*
X90790476Y-89550057D01*
X108828571Y-87931009D02*
X108685714Y-87978628D01*
X108685714Y-87978628D02*
X108638095Y-88026247D01*
X108638095Y-88026247D02*
X108590476Y-88121485D01*
X108590476Y-88121485D02*
X108590476Y-88264342D01*
X108590476Y-88264342D02*
X108638095Y-88359580D01*
X108638095Y-88359580D02*
X108685714Y-88407200D01*
X108685714Y-88407200D02*
X108780952Y-88454819D01*
X108780952Y-88454819D02*
X109161904Y-88454819D01*
X109161904Y-88454819D02*
X109161904Y-87454819D01*
X109161904Y-87454819D02*
X108828571Y-87454819D01*
X108828571Y-87454819D02*
X108733333Y-87502438D01*
X108733333Y-87502438D02*
X108685714Y-87550057D01*
X108685714Y-87550057D02*
X108638095Y-87645295D01*
X108638095Y-87645295D02*
X108638095Y-87740533D01*
X108638095Y-87740533D02*
X108685714Y-87835771D01*
X108685714Y-87835771D02*
X108733333Y-87883390D01*
X108733333Y-87883390D02*
X108828571Y-87931009D01*
X108828571Y-87931009D02*
X109161904Y-87931009D01*
D10*
X96363855Y-108747618D02*
X96363855Y-108290475D01*
X96363855Y-108519047D02*
X95563855Y-108519047D01*
X95563855Y-108519047D02*
X95678140Y-108442856D01*
X95678140Y-108442856D02*
X95754331Y-108366666D01*
X95754331Y-108366666D02*
X95792426Y-108290475D01*
X95640045Y-109052380D02*
X95601950Y-109090476D01*
X95601950Y-109090476D02*
X95563855Y-109166666D01*
X95563855Y-109166666D02*
X95563855Y-109357142D01*
X95563855Y-109357142D02*
X95601950Y-109433333D01*
X95601950Y-109433333D02*
X95640045Y-109471428D01*
X95640045Y-109471428D02*
X95716236Y-109509523D01*
X95716236Y-109509523D02*
X95792426Y-109509523D01*
X95792426Y-109509523D02*
X95906712Y-109471428D01*
X95906712Y-109471428D02*
X96363855Y-109014285D01*
X96363855Y-109014285D02*
X96363855Y-109509523D01*
X104363855Y-109728571D02*
X104363855Y-109271428D01*
X104363855Y-109500000D02*
X103563855Y-109500000D01*
X103563855Y-109500000D02*
X103678140Y-109423809D01*
X103678140Y-109423809D02*
X103754331Y-109347619D01*
X103754331Y-109347619D02*
X103792426Y-109271428D01*
D12*
X108095238Y-113050057D02*
X108190476Y-113002438D01*
X108190476Y-113002438D02*
X108285714Y-112907200D01*
X108285714Y-112907200D02*
X108428571Y-112764342D01*
X108428571Y-112764342D02*
X108523809Y-112716723D01*
X108523809Y-112716723D02*
X108619047Y-112716723D01*
X108571428Y-112954819D02*
X108666666Y-112907200D01*
X108666666Y-112907200D02*
X108761904Y-112811961D01*
X108761904Y-112811961D02*
X108809523Y-112621485D01*
X108809523Y-112621485D02*
X108809523Y-112288152D01*
X108809523Y-112288152D02*
X108761904Y-112097676D01*
X108761904Y-112097676D02*
X108666666Y-112002438D01*
X108666666Y-112002438D02*
X108571428Y-111954819D01*
X108571428Y-111954819D02*
X108380952Y-111954819D01*
X108380952Y-111954819D02*
X108285714Y-112002438D01*
X108285714Y-112002438D02*
X108190476Y-112097676D01*
X108190476Y-112097676D02*
X108142857Y-112288152D01*
X108142857Y-112288152D02*
X108142857Y-112621485D01*
X108142857Y-112621485D02*
X108190476Y-112811961D01*
X108190476Y-112811961D02*
X108285714Y-112907200D01*
X108285714Y-112907200D02*
X108380952Y-112954819D01*
X108380952Y-112954819D02*
X108571428Y-112954819D01*
X107190476Y-112954819D02*
X107761904Y-112954819D01*
X107476190Y-112954819D02*
X107476190Y-111954819D01*
X107476190Y-111954819D02*
X107571428Y-112097676D01*
X107571428Y-112097676D02*
X107666666Y-112192914D01*
X107666666Y-112192914D02*
X107761904Y-112240533D01*
X113166666Y-105024819D02*
X113499999Y-104548628D01*
X113738094Y-105024819D02*
X113738094Y-104024819D01*
X113738094Y-104024819D02*
X113357142Y-104024819D01*
X113357142Y-104024819D02*
X113261904Y-104072438D01*
X113261904Y-104072438D02*
X113214285Y-104120057D01*
X113214285Y-104120057D02*
X113166666Y-104215295D01*
X113166666Y-104215295D02*
X113166666Y-104358152D01*
X113166666Y-104358152D02*
X113214285Y-104453390D01*
X113214285Y-104453390D02*
X113261904Y-104501009D01*
X113261904Y-104501009D02*
X113357142Y-104548628D01*
X113357142Y-104548628D02*
X113738094Y-104548628D01*
X112214285Y-105024819D02*
X112785713Y-105024819D01*
X112499999Y-105024819D02*
X112499999Y-104024819D01*
X112499999Y-104024819D02*
X112595237Y-104167676D01*
X112595237Y-104167676D02*
X112690475Y-104262914D01*
X112690475Y-104262914D02*
X112785713Y-104310533D01*
X103166666Y-107954819D02*
X103499999Y-107478628D01*
X103738094Y-107954819D02*
X103738094Y-106954819D01*
X103738094Y-106954819D02*
X103357142Y-106954819D01*
X103357142Y-106954819D02*
X103261904Y-107002438D01*
X103261904Y-107002438D02*
X103214285Y-107050057D01*
X103214285Y-107050057D02*
X103166666Y-107145295D01*
X103166666Y-107145295D02*
X103166666Y-107288152D01*
X103166666Y-107288152D02*
X103214285Y-107383390D01*
X103214285Y-107383390D02*
X103261904Y-107431009D01*
X103261904Y-107431009D02*
X103357142Y-107478628D01*
X103357142Y-107478628D02*
X103738094Y-107478628D01*
X102785713Y-107050057D02*
X102738094Y-107002438D01*
X102738094Y-107002438D02*
X102642856Y-106954819D01*
X102642856Y-106954819D02*
X102404761Y-106954819D01*
X102404761Y-106954819D02*
X102309523Y-107002438D01*
X102309523Y-107002438D02*
X102261904Y-107050057D01*
X102261904Y-107050057D02*
X102214285Y-107145295D01*
X102214285Y-107145295D02*
X102214285Y-107240533D01*
X102214285Y-107240533D02*
X102261904Y-107383390D01*
X102261904Y-107383390D02*
X102833332Y-107954819D01*
X102833332Y-107954819D02*
X102214285Y-107954819D01*
X113166666Y-109384819D02*
X113499999Y-108908628D01*
X113738094Y-109384819D02*
X113738094Y-108384819D01*
X113738094Y-108384819D02*
X113357142Y-108384819D01*
X113357142Y-108384819D02*
X113261904Y-108432438D01*
X113261904Y-108432438D02*
X113214285Y-108480057D01*
X113214285Y-108480057D02*
X113166666Y-108575295D01*
X113166666Y-108575295D02*
X113166666Y-108718152D01*
X113166666Y-108718152D02*
X113214285Y-108813390D01*
X113214285Y-108813390D02*
X113261904Y-108861009D01*
X113261904Y-108861009D02*
X113357142Y-108908628D01*
X113357142Y-108908628D02*
X113738094Y-108908628D01*
X112833332Y-108384819D02*
X112214285Y-108384819D01*
X112214285Y-108384819D02*
X112547618Y-108765771D01*
X112547618Y-108765771D02*
X112404761Y-108765771D01*
X112404761Y-108765771D02*
X112309523Y-108813390D01*
X112309523Y-108813390D02*
X112261904Y-108861009D01*
X112261904Y-108861009D02*
X112214285Y-108956247D01*
X112214285Y-108956247D02*
X112214285Y-109194342D01*
X112214285Y-109194342D02*
X112261904Y-109289580D01*
X112261904Y-109289580D02*
X112309523Y-109337200D01*
X112309523Y-109337200D02*
X112404761Y-109384819D01*
X112404761Y-109384819D02*
X112690475Y-109384819D01*
X112690475Y-109384819D02*
X112785713Y-109337200D01*
X112785713Y-109337200D02*
X112833332Y-109289580D01*
X107166666Y-104859580D02*
X107214285Y-104907200D01*
X107214285Y-104907200D02*
X107357142Y-104954819D01*
X107357142Y-104954819D02*
X107452380Y-104954819D01*
X107452380Y-104954819D02*
X107595237Y-104907200D01*
X107595237Y-104907200D02*
X107690475Y-104811961D01*
X107690475Y-104811961D02*
X107738094Y-104716723D01*
X107738094Y-104716723D02*
X107785713Y-104526247D01*
X107785713Y-104526247D02*
X107785713Y-104383390D01*
X107785713Y-104383390D02*
X107738094Y-104192914D01*
X107738094Y-104192914D02*
X107690475Y-104097676D01*
X107690475Y-104097676D02*
X107595237Y-104002438D01*
X107595237Y-104002438D02*
X107452380Y-103954819D01*
X107452380Y-103954819D02*
X107357142Y-103954819D01*
X107357142Y-103954819D02*
X107214285Y-104002438D01*
X107214285Y-104002438D02*
X107166666Y-104050057D01*
X106785713Y-104050057D02*
X106738094Y-104002438D01*
X106738094Y-104002438D02*
X106642856Y-103954819D01*
X106642856Y-103954819D02*
X106404761Y-103954819D01*
X106404761Y-103954819D02*
X106309523Y-104002438D01*
X106309523Y-104002438D02*
X106261904Y-104050057D01*
X106261904Y-104050057D02*
X106214285Y-104145295D01*
X106214285Y-104145295D02*
X106214285Y-104240533D01*
X106214285Y-104240533D02*
X106261904Y-104383390D01*
X106261904Y-104383390D02*
X106833332Y-104954819D01*
X106833332Y-104954819D02*
X106214285Y-104954819D01*
X109166666Y-104859580D02*
X109214285Y-104907200D01*
X109214285Y-104907200D02*
X109357142Y-104954819D01*
X109357142Y-104954819D02*
X109452380Y-104954819D01*
X109452380Y-104954819D02*
X109595237Y-104907200D01*
X109595237Y-104907200D02*
X109690475Y-104811961D01*
X109690475Y-104811961D02*
X109738094Y-104716723D01*
X109738094Y-104716723D02*
X109785713Y-104526247D01*
X109785713Y-104526247D02*
X109785713Y-104383390D01*
X109785713Y-104383390D02*
X109738094Y-104192914D01*
X109738094Y-104192914D02*
X109690475Y-104097676D01*
X109690475Y-104097676D02*
X109595237Y-104002438D01*
X109595237Y-104002438D02*
X109452380Y-103954819D01*
X109452380Y-103954819D02*
X109357142Y-103954819D01*
X109357142Y-103954819D02*
X109214285Y-104002438D01*
X109214285Y-104002438D02*
X109166666Y-104050057D01*
X108214285Y-104954819D02*
X108785713Y-104954819D01*
X108499999Y-104954819D02*
X108499999Y-103954819D01*
X108499999Y-103954819D02*
X108595237Y-104097676D01*
X108595237Y-104097676D02*
X108690475Y-104192914D01*
X108690475Y-104192914D02*
X108785713Y-104240533D01*
X106400000Y-117400000D02*
X106400000Y-115400000D01*
X94300000Y-110900000D02*
X94300000Y-117400000D01*
X106400000Y-115400000D02*
X105700000Y-113900000D01*
X94300000Y-110900000D02*
X95500000Y-110900000D01*
X105700000Y-110900000D02*
X105700000Y-113900000D01*
X105700000Y-110900000D02*
X104500000Y-110900000D01*
D10*
X110000000Y-112060000D02*
X110650000Y-112060000D01*
X110000000Y-112060000D02*
X109350000Y-112060000D01*
X110000000Y-108940000D02*
X111675000Y-108940000D01*
X110000000Y-108940000D02*
X109350000Y-108940000D01*
X112737258Y-106522500D02*
X112262742Y-106522500D01*
X112737258Y-105477500D02*
X112262742Y-105477500D01*
X105022500Y-107262742D02*
X105022500Y-107737258D01*
X103977500Y-107262742D02*
X103977500Y-107737258D01*
X112262742Y-108022500D02*
X112737258Y-108022500D01*
X112262742Y-106977500D02*
X112737258Y-106977500D01*
X106510000Y-106859420D02*
X106510000Y-107140580D01*
X105490000Y-106859420D02*
X105490000Y-107140580D01*
X108735000Y-106738748D02*
X108735000Y-107261252D01*
X107265000Y-106738748D02*
X107265000Y-107261252D01*
D12*
X94500000Y-92500000D02*
X94500000Y-93000000D01*
X94500000Y-93000000D02*
X94000000Y-93000000D01*
X108500000Y-92500000D02*
X108500000Y-93000000D01*
X108500000Y-93000000D02*
X108000000Y-93000000D01*
%LPC*%
D14*
X94000000Y-100000000D03*
D15*
X103850000Y-110900000D03*
X103150000Y-110900000D03*
X102450000Y-110900000D03*
X101750000Y-110900000D03*
X101050000Y-110900000D03*
X100350000Y-110900000D03*
X99650000Y-110900000D03*
X98950000Y-110900000D03*
X98250000Y-110900000D03*
X97550000Y-110900000D03*
X96850000Y-110900000D03*
X96150000Y-110900000D03*
D16*
X110937500Y-109550000D03*
X110937500Y-111450000D03*
X109062500Y-110500000D03*
D17*
X113325000Y-106000000D03*
X111675000Y-106000000D03*
D18*
X104500000Y-106675000D03*
X104500000Y-108325000D03*
D19*
X111675000Y-107500000D03*
X113325000Y-107500000D03*
D20*
X106000000Y-106225000D03*
X106000000Y-107775000D03*
D21*
X108000000Y-106050000D03*
X108000000Y-107950000D03*
D22*
X93000000Y-92000000D03*
X93000000Y-90000000D03*
X93000000Y-88000000D03*
X93000000Y-86000000D03*
X107000000Y-92000000D03*
X107000000Y-90000000D03*
X107000000Y-88000000D03*
X107000000Y-86000000D03*
%LPD*%
M02*
